<svg xmlns="http://www.w3.org/2000/svg" version="1.1" xmlns:xlink="http://www.w3.org/1999/xlink" xmlns:svgjs="http://svgjs.dev/svgjs" width="100%" height="100%" viewBox="0 0 1000 600"><rect width="1000" height="600" x="0" y="0" fill="#262223"/><g><rect width="333.3333333333333" height="333.3333333333333" rx="13.333333333333334" ry="13.333333333333334" y="318.0084589022371" fill="#ddc6b6" transform="matrix(0.4226024410383951,0,0,0.42260244103839506,0,95.1750923250081)" x="295.7863464355469"/><path d="M411.9331399152723 558.4497271696509Q405.30484440924914 558.4497271696509 400.79314746817454 556.2495786613492Q396.2814505270999 554.0494301530473 393.69140228314967 549.0364335518533L393.69140228314967 549.0364335518533Q388.26065596518947 538.6205406138168 387.87075622954103 513.5555576078468L387.87075622954103 513.5555576078468Q387.6758063617168 500.10401672797616 383.05270949617125 491.1920227702979Q378.4574626117434 482.2521788315019 368.2086695604134 482.2521788315019L368.2086695604134 482.2521788315019L346.3742843641017 482.2521788315019L346.3742843641017 544.2183868184835Q346.3742843641017 547.0312349113757 347.5718335521647 548.3401840239096Q348.76938274022774 549.6491331364437 351.77718070094414 549.6491331364437L351.77718070094414 549.6491331364437L369.6290185974184 549.6491331364437L369.6290185974184 556.0546287935249L308.05271034608523 556.0546287935249L308.05271034608523 549.6491331364437L322.50685054619464 549.6491331364437Q327.9097468830371 549.6491331364437 327.9097468830371 544.2183868184835L327.9097468830371 544.2183868184835L327.9097468830371 425.1040175778901Q327.9097468830371 422.31901946611566 326.6007977705031 421.0100703535817Q325.3196986390868 419.7011212410477 322.50685054619464 419.7011212410477L322.50685054619464 419.7011212410477L308.05271034608523 419.7011212410477L308.05271034608523 413.29562558396645L373.8343657461978 413.29562558396645Q393.2736525663835 413.29562558396645 405.7225941260153 420.7037205612865Q418.1436857045294 428.11181553860655 418.1436857045294 445.37880383160814L418.1436857045294 445.37880383160814Q418.1436857045294 460.19499378624823 407.03154323854926 469.2183876683975Q395.89155079145144 478.2417815505467 380.23986140327906 479.85708045537586L380.23986140327906 479.85708045537586L380.23986140327906 480.66472990779044Q391.68620364267207 482.86487841609227 399.01074867663885 491.1920227702979Q406.30744372948794 499.51916712450355 408.7303920867317 519.5711535292796L408.7303920867317 519.5711535292796Q410.1228911426189 530.9896457875548 411.2368903873287 536.197592256573Q412.32303965092075 541.4055387255912 414.0497384802209 543.5221372905398Q415.74858732840335 545.6387358554884 419.1462850247682 545.6387358554884L419.1462850247682 545.6387358554884Q427.77977917126896 545.6387358554884 427.77977917126896 523.9714505458833L427.77977917126896 523.9714505458833L432.79277577246296 523.9714505458833Q432.79277577246296 537.0052417089876 428.977328359332 547.7274844393194Q425.161880946201 558.4497271696509 411.9331399152723 558.4497271696509L411.9331399152723 558.4497271696509ZM346.3742843641017 475.84668317442066L365.8135711842874 475.84668317442066Q382.6628097605228 475.84668317442066 389.7645549455477 467.71448868803924Q396.8941501116903 459.6101441827756 396.8941501116903 445.37880383160814L396.8941501116903 445.37880383160814Q396.8941501116903 433.12481213980055 390.3772545301381 426.4129666904241Q383.8603589485858 419.7011212410477 372.6368165581348 419.7011212410477L372.6368165581348 419.7011212410477L351.77718070094414 419.7011212410477Q348.96433260805196 419.7011212410477 347.655383495518 421.0100703535817Q346.3742843641017 422.31901946611566 346.3742843641017 425.1040175778901L346.3742843641017 425.1040175778901L346.3742843641017 475.84668317442066ZM467.27105239623074 558.4497271696509Q461.8681560593883 558.4497271696509 458.35905843855244 554.9406295488152Q454.84996081771664 551.4315319279793 454.84996081771664 546.0286355911369L454.84996081771664 546.0286355911369Q454.84996081771664 540.6257392542944 458.35905843855244 537.1166416334586Q461.8681560593883 533.6075440126228 467.27105239623074 533.6075440126228L467.27105239623074 533.6075440126228Q472.7017987141909 533.6075440126228 476.2108963350267 537.1166416334586Q479.7199939558625 540.6257392542944 479.7199939558625 546.0286355911369L479.7199939558625 546.0286355911369Q479.7199939558625 551.4315319279793 476.2108963350267 554.9406295488152Q472.7017987141909 558.4497271696509 467.27105239623074 558.4497271696509L467.27105239623074 558.4497271696509ZM568.7285336081741 559.6751263388317Q550.0968962404029 559.6751263388317 536.6453553605323 548.8414836840291Q523.2216644617795 538.0078410292265 516.3148691445788 520.4623529250474Q509.38022384626044 502.91686482086834 509.38022384626044 483.4775780006827L509.38022384626044 483.4775780006827Q509.38022384626044 463.20279174696464 516.2034692201079 446.38140315184694Q523.0267145939553 429.53216457561155 535.6427560402935 419.58972131657674Q548.2866474677495 409.67512803865964 565.135886043985 409.67512803865964L565.135886043985 409.67512803865964Q573.96433005831 409.67512803865964 581.7623247712784 413.6855253196149Q589.5881694653647 417.6959226005701 594.6011660665586 422.31901946611566L594.6011660665586 422.31901946611566Q599.4192127999286 426.7193164827193 601.0345117047577 426.7193164827193L601.0345117047577 426.7193164827193Q602.6219606284692 426.7193164827193 603.3182101564128 425.7167171624805Q604.042309665474 424.7141178422417 604.8221091367709 422.5139693339399L604.8221091367709 422.5139693339399L608.637556549902 411.29042694348885L613.6505531510959 411.29042694348885L614.4582026035105 473.4515847982946L608.8325064177261 473.4515847982946Q604.4322094011225 454.4021977137574 597.414014159451 441.4519564940062Q590.3958189177793 428.52956525537275 582.0686745635737 422.31901946611566Q573.741530209368 416.0806236957409 565.5257857796335 416.0806236957409L565.5257857796335 416.0806236957409Q546.4763986950961 416.0806236957409 538.5670040576567 433.3476119887425Q530.6297594390995 450.58675030062636 530.6297594390995 483.4775780006827L530.6297594390995 483.4775780006827Q530.6297594390995 517.34315503986 538.8733538499519 535.3063928608053Q547.0890982796866 553.2417807006327 568.7285336081741 553.2417807006327L568.7285336081741 553.2417807006327Q588.0007205416532 553.2417807006327 598.1102636873945 538.8990404249944Q608.2476568142536 524.5841501304735 609.6401558701407 504.11441400893136L609.6401558701407 504.11441400893136L616.8533009796365 504.11441400893136Q616.268451376164 515.9506559839729 611.9517043029134 528.5945474114288Q607.6349572296631 541.2105888577671 597.0241144238025 550.4289326077405Q586.385421636824 559.6751263388317 568.7285336081741 559.6751263388317L568.7285336081741 559.6751263388317Z " fill="#262223" transform="matrix(0.4226024410383951,0,0,0.42260244103839506,0,95.1750923250081)"/><path d="M712.4530094402191 523.0487647368188L712.4530094402191 517.9617697271989L723.9319242662748 517.9617697271989Q728.2226939700411 517.9617697271989 728.2226939700411 513.6488826538255L728.2226939700411 513.6488826538255L728.2226939700411 419.05289284450066Q728.2226939700411 416.8411558837963 727.1831775985102 415.8016395122653Q726.165778596586 414.7621231407343 723.9319242662748 414.7621231407343L723.9319242662748 414.7621231407343L712.4530094402191 414.7621231407343L712.4530094402191 409.67512813111426L801.3206005213196 409.67512813111426L801.962004239924 449.48639342379244L797.9808777106562 449.48639342379244Q797.9808777106562 446.30149220037816 796.6317181646265 438.64888231634114Q795.2604412489898 430.9962724323041 791.2793147197219 424.9582305295813L791.2793147197219 424.9582305295813Q784.5998690983948 414.7621231407343 772.5016679233421 414.7621231407343L772.5016679233421 414.7621231407343L747.1772797232774 414.7621231407343Q744.943425392966 414.7621231407343 743.9039090214349 415.8016395122653Q742.886510019511 416.8411558837963 742.886510019511 419.05289284450066L742.886510019511 419.05289284450066L742.886510019511 461.8942377733438L755.1395327818129 461.8942377733438Q763.2566074275979 461.8942377733438 766.8396213039389 453.22422888738276Q770.4226351802799 444.5321026318147 770.4226351802799 434.9773989615719L770.4226351802799 434.9773989615719L774.5585832967971 434.9773989615719L774.5585832967971 493.89807159473565L770.4226351802799 493.89807159473565Q770.4226351802799 484.3433679244929 766.8396213039389 475.6733590385318Q763.2566074275979 467.0033501525708 755.1395327818129 467.0033501525708L755.1395327818129 467.0033501525708L742.886510019511 467.0033501525708L742.886510019511 512.6978357607226Q742.886510019511 515.0865116782832 743.9039090214349 516.5241407027411Q744.943425392966 517.9617697271989 747.1772797232774 517.9617697271989L747.1772797232774 517.9617697271989L761.1996920541428 517.9617697271989L761.1996920541428 523.0487647368188L712.4530094402191 523.0487647368188ZM816.2940597452881 523.0487647368188L816.2940597452881 519.2224597948004L822.9735053666152 519.2224597948004Q824.8977165224279 519.2224597948004 825.6939418282815 518.4262344889469Q826.490167134135 517.6300091830933 826.490167134135 515.7279153968875L826.490167134135 515.7279153968875L826.490167134135 457.75828965682666Q826.490167134135 455.8561958706209 825.6939418282815 455.0599705647674Q824.8977165224279 454.26374525891384 822.9735053666152 454.26374525891384L822.9735053666152 454.26374525891384L816.2940597452881 454.26374525891384L816.2940597452881 450.43744031689533L837.9469645905837 450.43744031689533L837.9469645905837 466.3619464339666L838.5883683091878 466.51676802121585Q841.9280911198514 458.2448717881816 847.2583771951489 453.3790504746321Q852.5886632704463 448.5132291610825 858.6488225427762 448.5132291610825L858.6488225427762 448.5132291610825Q864.7089818151061 448.5132291610825 868.5131693875176 452.0298909286024Q872.3394743295361 455.5244353265153 872.3394743295361 461.5845945988452L872.3394743295361 461.5845945988452Q872.3394743295361 465.07913899675805 869.8844463031543 468.4188618074216Q867.4073009071654 471.7807019876922 863.5809959651469 471.7807019876922L863.5809959651469 471.7807019876922Q860.550916328982 471.7807019876922 858.494000955527 470.1882513759851Q856.4149682124648 468.59580076427795 856.4149682124648 465.7205427153623L856.4149682124648 465.7205427153623Q856.4149682124648 462.38081990469874 859.5998694358791 459.99214398713804L859.5998694358791 459.99214398713804Q861.0374984603369 459.0410970940352 861.7452542877624 458.2448717881816Q862.4751274847948 457.44864648232806 862.4751274847948 456.1658390451195L862.4751274847948 456.1658390451195Q862.4751274847948 454.7282100206617 861.1259679387651 453.86563260598706Q859.7546910231284 452.9809378217053 857.3660151055677 452.9809378217053L857.3660151055677 452.9809378217053Q852.4338416831971 452.9809378217053 847.8997809137531 457.75828965682666Q843.3657201443092 462.53564149194807 840.6452836826429 470.1882513759851Q837.9469645905837 477.8187438904151 837.9469645905837 486.11275749305634L837.9469645905837 486.11275749305634L837.9469645905837 515.7279153968875Q837.9469645905837 517.6300091830933 838.7431898964372 518.4262344889469Q839.5394152022908 519.2224597948004 841.4415089884965 519.2224597948004L841.4415089884965 519.2224597948004L848.1430719794306 519.2224597948004L848.1430719794306 523.0487647368188L816.2940597452881 523.0487647368188ZM915.02599767113 524.9508585230246Q906.2675193067407 524.9508585230246 898.9466699668094 519.7753940349764Q891.6037032572709 514.5999295469283 887.4014030319328 505.8414511825391Q883.1769854369874 497.0829728181499 883.1769854369874 486.73204384205354L883.1769854369874 486.73204384205354Q883.1769854369874 476.3811148659573 887.4014030319328 467.622636501568Q891.6037032572709 458.86415813717883 898.9466699668094 453.6886936491307Q906.2675193067407 448.5132291610825 915.02599767113 448.5132291610825L915.02599767113 448.5132291610825Q923.7844760355191 448.5132291610825 931.1053253754504 453.6886936491307Q938.4261747153819 458.86415813717883 942.6505923103272 467.622636501568Q946.8750099052725 476.3811148659573 946.8750099052725 486.73204384205354L946.8750099052725 486.73204384205354Q946.8750099052725 497.0829728181499 942.6505923103272 505.8414511825391Q938.4261747153819 514.5999295469283 931.1053253754504 519.7753940349764Q923.7844760355191 524.9508585230246 915.02599767113 524.9508585230246L915.02599767113 524.9508585230246ZM915.02599767113 521.1466709506132Q924.5807013413727 521.1466709506132 928.7166494578898 512.1449015205465Q932.8525975744069 503.1431320904798 932.8525975744069 486.73204384205354L932.8525975744069 486.73204384205354Q932.8525975744069 470.3430729632344 928.7166494578898 461.3413035331677Q924.5807013413727 452.339534103101 915.02599767113 452.339534103101L915.02599767113 452.339534103101Q905.4712940008872 452.339534103101 901.3353458843701 461.3413035331677Q897.1772803982459 470.3430729632344 897.1772803982459 486.73204384205354L897.1772803982459 486.73204384205354Q897.1772803982459 503.1431320904798 901.3353458843701 512.1449015205465Q905.4712940008872 521.1466709506132 915.02599767113 521.1466709506132L915.02599767113 521.1466709506132ZM960.5656616920323 523.0487647368188L960.5656616920323 519.2224597948004L967.2451073133594 519.2224597948004Q969.1693184691723 519.2224597948004 969.9655437750258 518.4262344889469Q970.7617690808794 517.6300091830933 970.7617690808794 515.7279153968875L970.7617690808794 515.7279153968875L970.7617690808794 457.75828965682666Q970.7617690808794 455.8561958706209 969.9655437750258 455.0599705647674Q969.1693184691723 454.26374525891384 967.2451073133594 454.26374525891384L967.2451073133594 454.26374525891384L960.5656616920323 454.26374525891384L960.5656616920323 450.43744031689533L982.2185665373279 450.43744031689533L982.2185665373279 463.4866883850509L982.8599702559321 463.64150997230024Q986.5314536107013 456.01101745787025 991.92809179482 452.2731819942799Q997.3468473485456 448.5132291610825 1003.8714713826233 448.5132291610825L1003.8714713826233 448.5132291610825Q1015.5052077959282 448.5132291610825 1020.3710291094777 455.6792569137646Q1025.2147330534203 462.8452846664467 1025.2147330534203 472.8865704680444L1025.2147330534203 472.8865704680444L1025.2147330534203 515.7279153968875Q1025.2147330534203 517.6300091830933 1026.010958359274 518.4262344889469Q1026.8071836651275 519.2224597948004 1028.7313948209403 519.2224597948004L1028.7313948209403 519.2224597948004L1035.4108404422673 519.2224597948004L1035.4108404422673 523.0487647368188L1003.5618282081249 523.0487647368188L1003.5618282081249 519.2224597948004L1010.2412738294519 519.2224597948004Q1012.1654849852647 519.2224597948004 1012.9617102911183 518.4262344889469Q1013.7579355969718 517.6300091830933 1013.7579355969718 515.7279153968875L1013.7579355969718 515.7279153968875L1013.7579355969718 469.85649083187946Q1013.7579355969718 462.8452846664467 1010.9711470264843 457.913111244076Q1008.1843584559969 452.9809378217053 1001.4827954650626 452.9809378217053L1001.4827954650626 452.9809378217053Q995.9092183240878 452.9809378217053 991.5299791418931 456.8735948725449Q987.1507399596986 460.7883692929916 984.6957119333168 467.55628439274693Q982.2185665373279 474.3241994925022 982.2185665373279 482.59609572553643L982.2185665373279 482.59609572553643L982.2185665373279 515.7279153968875Q982.2185665373279 517.6300091830933 983.0147918431815 518.4262344889469Q983.811017149035 519.2224597948004 985.7352283048479 519.2224597948004L985.7352283048479 519.2224597948004L992.4146739261749 519.2224597948004L992.4146739261749 523.0487647368188L960.5656616920323 523.0487647368188ZM1073.3200119487396 524.9508585230246Q1066.1539841960575 524.9508585230246 1061.4429844697574 519.8638635134046Q1056.7541021130642 514.7768685037847 1056.7541021130642 506.0183901393954L1056.7541021130642 506.0183901393954L1056.7541021130642 454.88303160791105L1044.96554411251 454.88303160791105L1044.96554411251 450.43744031689533L1048.4600885104228 450.43744031689533Q1055.626116263105 450.43744031689533 1059.6957122708009 442.71847832403716Q1063.765308278497 434.9773989615719 1063.765308278497 425.5996342481855L1063.765308278497 425.5996342481855L1063.765308278497 419.84911815035423L1068.2108995695128 419.84911815035423L1068.2108995695128 450.43744031689533L1087.9617106286025 450.43744031689533L1087.9617106286025 454.88303160791105L1068.2108995695128 454.88303160791105L1068.2108995695128 506.814615445249Q1068.2108995695128 511.5919672803704 1070.1351107253254 514.7768685037847Q1072.0372045115314 517.9617697271989 1076.6597347594034 517.9617697271989L1076.6597347594034 517.9617697271989Q1087.9617106286025 517.9617697271989 1087.9617106286025 498.85236238671337L1087.9617106286025 498.85236238671337L1090.8369686775181 498.85236238671337Q1090.8369686775181 509.5129345373083 1087.7184195629252 517.2318965301665Q1084.621987817939 524.9508585230246 1073.3200119487396 524.9508585230246L1073.3200119487396 524.9508585230246ZM1136.6862758729194 524.9508585230246Q1121.8897556058073 524.9508585230246 1112.8879861757405 514.9316900910339Q1103.8862167456737 504.8904042894362 1103.8862167456737 487.06380438615923L1103.8862167456737 487.06380438615923Q1103.8862167456737 476.8676969973122 1107.8673432749415 468.0207491544948Q1111.8484698042093 459.19591868128447 1118.9260280784633 453.86563260598706Q1126.0257037223241 448.5132291610825 1134.7841820867134 448.5132291610825L1134.7841820867134 448.5132291610825Q1144.4937073442056 448.5132291610825 1150.7086882037847 453.7771631275589Q1156.9236690633638 459.0410970940352 1159.7104576338515 467.06970226139197Q1162.4972462043388 475.12042479835577 1162.4972462043388 483.5471426186393L1162.4972462043388 483.5471426186393Q1162.4972462043388 485.31653218720277 1161.3692603543795 485.8694664273789Q1160.2633918740275 486.422400667555 1157.5429554123612 486.422400667555L1157.5429554123612 486.422400667555L1117.9086290765395 486.422400667555Q1117.9086290765395 502.34690678462624 1122.4426898459833 511.7467888676197Q1126.9767506154271 521.1466709506132 1137.3276795915235 521.1466709506132L1137.3276795915235 521.1466709506132Q1144.648528931455 521.1466709506132 1151.1068008567115 515.5730938096383Q1157.5429554123612 509.99951666866326 1159.3123449809245 498.2109586681091L1159.3123449809245 498.2109586681091L1163.1165325533361 498.2109586681091Q1162.1654856602331 509.8225777118069 1155.0879273859794 517.3867181174157Q1147.9882517421183 524.9508585230246 1136.6862758729194 524.9508585230246L1136.6862758729194 524.9508585230246ZM1117.9086290765395 482.59609572553643L1148.784477047972 482.59609572553643Q1148.784477047972 469.85649083187946 1145.4447542373084 461.0980124674902Q1142.105031426645 452.339534103101 1134.4524215426077 452.339534103101L1134.4524215426077 452.339534103101Q1126.335346896823 452.339534103101 1122.1109293018776 461.1864819459184Q1117.9086290765395 470.0113124191287 1117.9086290765395 482.59609572553643L1117.9086290765395 482.59609572553643ZM1175.5464942724946 523.0487647368188L1175.5464942724946 519.2224597948004L1182.2259398938218 519.2224597948004Q1184.1501510496344 519.2224597948004 1184.946376355488 518.4262344889469Q1185.7426016613417 517.6300091830933 1185.7426016613417 515.7279153968875L1185.7426016613417 515.7279153968875L1185.7426016613417 457.75828965682666Q1185.7426016613417 455.8561958706209 1184.946376355488 455.0599705647674Q1184.1501510496344 454.26374525891384 1182.2259398938218 454.26374525891384L1182.2259398938218 454.26374525891384L1175.5464942724946 454.26374525891384L1175.5464942724946 450.43744031689533L1197.19939911779 450.43744031689533L1197.19939911779 463.4866883850509L1197.8408028363942 463.64150997230024Q1201.5122861911636 456.01101745787025 1206.9089243752821 452.2731819942799Q1212.327679929008 448.5132291610825 1218.8523039630854 448.5132291610825L1218.8523039630854 448.5132291610825Q1230.4860403763905 448.5132291610825 1235.35186168994 455.6792569137646Q1240.1955656338823 462.8452846664467 1240.1955656338823 472.8865704680444L1240.1955656338823 472.8865704680444L1240.1955656338823 515.7279153968875Q1240.1955656338823 517.6300091830933 1240.991790939736 518.4262344889469Q1241.7880162455895 519.2224597948004 1243.7122274014023 519.2224597948004L1243.7122274014023 519.2224597948004L1250.3916730227295 519.2224597948004L1250.3916730227295 523.0487647368188L1218.542660788587 523.0487647368188L1218.542660788587 519.2224597948004L1225.222106409914 519.2224597948004Q1227.1463175657268 519.2224597948004 1227.9425428715804 518.4262344889469Q1228.738768177434 517.6300091830933 1228.738768177434 515.7279153968875L1228.738768177434 515.7279153968875L1228.738768177434 469.85649083187946Q1228.738768177434 462.8452846664467 1225.9519796069465 457.913111244076Q1223.165191036459 452.9809378217053 1216.4636280455247 452.9809378217053L1216.4636280455247 452.9809378217053Q1210.8900509045498 452.9809378217053 1206.5108117223554 456.8735948725449Q1202.1315725401607 460.7883692929916 1199.676544513779 467.55628439274693Q1197.19939911779 474.3241994925022 1197.19939911779 482.59609572553643L1197.19939911779 482.59609572553643L1197.19939911779 515.7279153968875Q1197.19939911779 517.6300091830933 1197.9956244236437 518.4262344889469Q1198.7918497294972 519.2224597948004 1200.71606088531 519.2224597948004L1200.71606088531 519.2224597948004L1207.395506506637 519.2224597948004L1207.395506506637 523.0487647368188L1175.5464942724946 523.0487647368188ZM1291.1539852085107 524.9508585230246Q1283.67831428133 524.9508585230246 1277.220042356073 519.9523329918328Q1270.7838878004236 514.9316900910339 1266.957582858405 506.17321172664475Q1263.1312779163864 497.4147333622555 1263.1312779163864 486.73204384205354L1263.1312779163864 486.73204384205354Q1263.1312779163864 476.0714716914586 1266.957582858405 467.3129933270694Q1270.7838878004236 458.55451496268023 1277.220042356073 453.53387206188137Q1283.67831428133 448.5132291610825 1291.1539852085107 448.5132291610825L1291.1539852085107 448.5132291610825Q1297.3689660680898 448.5132291610825 1302.3011394904604 452.5828251687785Q1307.233312912831 456.6524211764745 1309.6219888303917 462.38081990469874L1309.6219888303917 462.38081990469874L1310.263392548996 462.22599831744947L1310.263392548996 416.99597747104565Q1310.263392548996 415.0717663152328 1309.4671672431423 414.27554100937925Q1308.6709419372887 413.47931570352574 1306.7688481510831 413.47931570352574L1306.7688481510831 413.47931570352574L1295.2899333250277 413.47931570352574L1295.2899333250277 409.67512813111426L1321.7423073750515 409.67512813111426L1321.7423073750515 515.7279153968875Q1321.7423073750515 517.6300091830933 1322.538532680905 518.4262344889469Q1323.3347579867586 519.2224597948004 1325.2368517729642 519.2224597948004L1325.2368517729642 519.2224597948004L1333.5087480059988 519.2224597948004L1333.5087480059988 523.0487647368188L1310.263392548996 523.0487647368188L1310.263392548996 511.2602067362647L1309.6219888303917 511.10538514901543Q1306.614026563834 517.4751875958439 1301.9030268375336 521.2130230594344Q1297.2141444808403 524.9508585230246 1291.1539852085107 524.9508585230246L1291.1539852085107 524.9508585230246ZM1292.9012574074668 520.5052672320089Q1297.6786092425882 520.5052672320089 1301.659735771856 516.988605464489Q1305.640862301124 513.4940610665761 1307.9631861098633 507.3675496854251Q1310.263392548996 501.24103830427407 1310.263392548996 494.075010551592L1310.263392548996 494.075010551592L1310.263392548996 479.4111945021222Q1310.263392548996 472.2451667494401 1307.9631861098633 466.1186553682891Q1305.640862301124 459.99214398713804 1301.659735771856 456.4754822196182Q1297.6786092425882 452.9809378217053 1292.9012574074668 452.9809378217053L1292.9012574074668 452.9809378217053Q1285.1159433057876 452.9809378217053 1281.1348167765198 461.7394161860945Q1277.153690247252 470.4978945504837 1277.153690247252 486.73204384205354L1277.153690247252 486.73204384205354Q1277.153690247252 502.9883105032305 1281.1348167765198 511.7467888676197Q1285.1159433057876 520.5052672320089 1292.9012574074668 520.5052672320089L1292.9012574074668 520.5052672320089ZM1393.0708243577665 523.0487647368188L1393.0708243577665 517.9617697271989L1404.549739183822 517.9617697271989Q1408.8405088875884 517.9617697271989 1408.8405088875884 513.6488826538255L1408.8405088875884 513.6488826538255L1408.8405088875884 419.05289284450066Q1408.8405088875884 416.8411558837963 1407.8009925160577 415.8016395122653Q1406.7614761445266 414.7621231407343 1404.549739183822 414.7621231407343L1404.549739183822 414.7621231407343L1393.0708243577665 414.7621231407343L1393.0708243577665 409.67512813111426L1451.350093272326 409.67512813111426Q1464.5762802973381 409.67512813111426 1475.5686129920387 416.75268640536814Q1486.5609456867392 423.83024467962207 1492.997100242389 436.50349746445795Q1499.4553721676457 449.1546328796868 1499.4553721676457 465.4108995408637L1499.4553721676457 465.4108995408637Q1499.4553721676457 481.6450488324336 1492.997100242389 494.8712358574456Q1486.5609456867392 508.0753055128505 1475.4801435136105 515.5730938096383Q1464.4214587100887 523.0487647368188 1451.350093272326 523.0487647368188L1451.350093272326 523.0487647368188L1393.0708243577665 523.0487647368188ZM1427.7950946408246 517.9617697271989L1450.7308069233286 517.9617697271989Q1461.8779612052786 517.9617697271989 1469.0439889579607 510.39762932159005Q1476.2100167106428 502.8334889159812 1479.394917934057 490.95646143699884Q1482.5798191574713 479.10155132762355 1482.5798191574713 465.4108995408637L1482.5798191574713 465.4108995408637Q1482.5798191574713 444.0676378700668 1474.8387397950064 429.403821820597Q1467.1197778021478 414.7621231407343 1450.7308069233286 414.7621231407343L1450.7308069233286 414.7621231407343L1427.7950946408246 414.7621231407343Q1425.5612403105133 414.7621231407343 1424.5217239389826 415.8016395122653Q1423.4822075674515 416.8411558837963 1423.4822075674515 419.05289284450066L1423.4822075674515 419.05289284450066L1423.4822075674515 513.6488826538255Q1423.4822075674515 517.9617697271989 1427.7950946408246 517.9617697271989L1427.7950946408246 517.9617697271989ZM1547.8702942374634 524.9508585230246Q1533.0516566007445 524.9508585230246 1524.0498871706777 514.9316900910339Q1515.048117740611 504.8904042894362 1515.048117740611 487.06380438615923L1515.048117740611 487.06380438615923Q1515.048117740611 476.8676969973122 1519.0292442698787 468.0207491544948Q1523.0103707991466 459.19591868128447 1530.1100464430078 453.86563260598706Q1537.1876047172618 448.5132291610825 1545.9460830816506 448.5132291610825L1545.9460830816506 448.5132291610825Q1555.6556083391429 448.5132291610825 1561.870589198722 453.7771631275589Q1568.085570058301 459.0410970940352 1570.8723586287888 467.06970226139197Q1573.659147199276 475.12042479835577 1573.659147199276 483.5471426186393L1573.659147199276 483.5471426186393Q1573.659147199276 485.31653218720277 1572.553278718924 485.8694664273789Q1571.4252928689648 486.422400667555 1568.7269737769057 486.422400667555L1568.7269737769057 486.422400667555L1529.0705300714767 486.422400667555Q1529.0705300714767 502.34690678462624 1533.6045908409205 511.7467888676197Q1538.1386516103644 521.1466709506132 1548.4895805864608 521.1466709506132L1548.4895805864608 521.1466709506132Q1555.8325472959991 521.1466709506132 1562.268701851649 515.5730938096383Q1568.7269737769057 509.99951666866326 1570.4742459758618 498.2109586681091L1570.4742459758618 498.2109586681091L1574.3005509178802 498.2109586681091Q1573.3495040247776 509.8225777118069 1566.2498283809168 517.3867181174157Q1559.1722701066628 524.9508585230246 1547.8702942374634 524.9508585230246L1547.8702942374634 524.9508585230246ZM1529.0705300714767 482.59609572553643L1559.9684954125164 482.59609572553643Q1559.9684954125164 469.85649083187946 1556.6287726018527 461.0980124674902Q1553.2669324215822 452.339534103101 1545.6364399071522 452.339534103101L1545.6364399071522 452.339534103101Q1537.519365261367 452.339534103101 1533.294947666422 461.1864819459184Q1529.0705300714767 470.0113124191287 1529.0705300714767 482.59609572553643L1529.0705300714767 482.59609572553643ZM1622.7154729876984 524.9508585230246L1596.4400378945306 462.22599831744947Q1594.847587282824 458.06793283132527 1593.1666671926887 456.1658390451195Q1591.4857471025534 454.26374525891384 1588.1460242918897 454.26374525891384L1588.1460242918897 454.26374525891384L1583.5234940440178 454.26374525891384L1583.5234940440178 450.43744031689533L1617.938121152577 450.43744031689533L1617.938121152577 454.26374525891384L1613.4704124919544 454.26374525891384Q1611.5683187057484 454.26374525891384 1609.9758680940413 455.28114426083783Q1608.3834174823346 456.32066063236886 1608.3834174823346 458.06793283132527L1608.3834174823346 458.06793283132527Q1608.3834174823346 460.7883692929916 1609.3344643754372 463.33186679780164L1609.3344643754372 463.33186679780164L1627.161064278714 506.3280333138941L1640.0554907596206 468.59580076427795Q1640.6968944782247 466.6715896084652 1641.2498287184007 464.2829136909045Q1641.824880328184 461.8942377733438 1641.824880328184 460.45660874888597L1641.824880328184 460.45660874888597Q1641.824880328184 457.75828965682666 1640.2324297164769 456.01101745787025Q1638.6399791047697 454.26374525891384 1636.0743642303528 454.26374525891384L1636.0743642303528 454.26374525891384L1632.2701766579412 454.26374525891384L1632.2701766579412 450.43744031689533L1661.243930843168 450.43744031689533L1661.243930843168 454.26374525891384L1657.5724474883987 454.26374525891384Q1654.077903090486 454.26374525891384 1651.1362929327493 456.5639516980463Q1648.1946827750126 458.86415813717883 1646.6022321633054 463.64150997230024L1646.6022321633054 463.64150997230024L1625.568613667007 524.9508585230246L1622.7154729876984 524.9508585230246ZM1697.8702949124322 524.9508585230246Q1683.0516572757128 524.9508585230246 1674.0720052152533 514.9316900910339Q1665.0702357851865 504.8904042894362 1665.0702357851865 487.06380438615923L1665.0702357851865 487.06380438615923Q1665.0702357851865 476.8676969973122 1669.0513623144548 468.0207491544948Q1673.0324888437221 459.19591868128447 1680.1100471179761 453.86563260598706Q1687.209722761837 448.5132291610825 1695.9682011262262 448.5132291610825L1695.9682011262262 448.5132291610825Q1705.6777263837184 448.5132291610825 1711.8927072432975 453.7771631275589Q1718.0855707332698 459.0410970940352 1720.872359303757 467.06970226139197Q1723.6591478742448 475.12042479835577 1723.6591478742448 483.5471426186393L1723.6591478742448 483.5471426186393Q1723.6591478742448 485.31653218720277 1722.5532793938924 485.8694664273789Q1721.4474109135404 486.422400667555 1718.726974451874 486.422400667555L1718.726974451874 486.422400667555L1679.070530746445 486.422400667555Q1679.070530746445 502.34690678462624 1683.626708885496 511.7467888676197Q1688.16076965494 521.1466709506132 1698.5116986310363 521.1466709506132L1698.5116986310363 521.1466709506132Q1705.8325479709679 521.1466709506132 1712.2908198962245 515.5730938096383Q1718.726974451874 509.99951666866326 1720.4742466508305 498.2109586681091L1720.4742466508305 498.2109586681091L1724.300551592849 498.2109586681091Q1723.349504699746 509.8225777118069 1716.2719464254924 517.3867181174157Q1709.1722707816311 524.9508585230246 1697.8702949124322 524.9508585230246L1697.8702949124322 524.9508585230246ZM1679.070530746445 482.59609572553643L1709.9684960874847 482.59609572553643Q1709.9684960874847 469.85649083187946 1706.6287732768214 461.0980124674902Q1703.2890504661577 452.339534103101 1695.6364405821205 452.339534103101L1695.6364405821205 452.339534103101Q1687.5193659363358 452.339534103101 1683.2949483413904 461.1864819459184Q1679.070530746445 470.0113124191287 1679.070530746445 482.59609572553643L1679.070530746445 482.59609572553643ZM1735.1380627003005 523.0487647368188L1735.1380627003005 519.2224597948004L1743.4099589333346 519.2224597948004Q1745.3341700891474 519.2224597948004 1746.1303953950005 518.4262344889469Q1746.9266207008545 517.6300091830933 1746.9266207008545 515.7279153968875L1746.9266207008545 515.7279153968875L1746.9266207008545 416.99597747104565Q1746.9266207008545 415.0717663152328 1746.1303953950005 414.27554100937925Q1745.3341700891474 413.47931570352574 1743.4099589333346 413.47931570352574L1743.4099589333346 413.47931570352574L1735.1380627003005 413.47931570352574L1735.1380627003005 409.67512813111426L1758.383418157303 409.67512813111426L1758.383418157303 515.7279153968875Q1758.383418157303 517.6300091830933 1759.1796434631565 518.4262344889469Q1759.97586876901 519.2224597948004 1761.8779625552156 519.2224597948004L1761.8779625552156 519.2224597948004L1770.171976157857 519.2224597948004L1770.171976157857 523.0487647368188L1735.1380627003005 523.0487647368188ZM1813.1681426739497 524.9508585230246Q1804.4096643095604 524.9508585230246 1797.0888149696289 519.7753940349764Q1789.7458482600905 514.5999295469283 1785.543548034752 505.8414511825391Q1781.319130439807 497.0829728181499 1781.319130439807 486.73204384205354L1781.319130439807 486.73204384205354Q1781.319130439807 476.3811148659573 1785.543548034752 467.622636501568Q1789.7458482600905 458.86415813717883 1797.0888149696289 453.6886936491307Q1804.4096643095604 448.5132291610825 1813.1681426739497 448.5132291610825L1813.1681426739497 448.5132291610825Q1821.9266210383385 448.5132291610825 1829.24747037827 453.6886936491307Q1836.5683197182016 458.86415813717883 1840.7927373131465 467.622636501568Q1845.017154908092 476.3811148659573 1845.017154908092 486.73204384205354L1845.017154908092 486.73204384205354Q1845.017154908092 497.0829728181499 1840.7927373131465 505.8414511825391Q1836.5683197182016 514.5999295469283 1829.24747037827 519.7753940349764Q1821.9266210383385 524.9508585230246 1813.1681426739497 524.9508585230246L1813.1681426739497 524.9508585230246ZM1813.1681426739497 521.1466709506132Q1822.722846344192 521.1466709506132 1826.8587944607093 512.1449015205465Q1830.9947425772266 503.1431320904798 1830.9947425772266 486.73204384205354L1830.9947425772266 486.73204384205354Q1830.9947425772266 470.3430729632344 1826.8587944607093 461.3413035331677Q1822.722846344192 452.339534103101 1813.1681426739497 452.339534103101L1813.1681426739497 452.339534103101Q1803.6134390037068 452.339534103101 1799.4774908871896 461.3413035331677Q1795.3194254010655 470.3430729632344 1795.3194254010655 486.73204384205354L1795.3194254010655 486.73204384205354Q1795.3194254010655 503.1431320904798 1799.4774908871896 512.1449015205465Q1803.6134390037068 521.1466709506132 1813.1681426739497 521.1466709506132L1813.1681426739497 521.1466709506132ZM1857.1153560831444 559.6751288060827L1857.1153560831444 555.8488238640643L1865.387252316179 555.8488238640643Q1867.3114634719918 555.8488238640643 1868.1076887778454 555.0525985582108Q1868.903914083699 554.2563732523572 1868.903914083699 552.3542794661514L1868.903914083699 552.3542794661514L1868.903914083699 457.75828965682666Q1868.903914083699 455.8561958706209 1868.1076887778454 455.0599705647674Q1867.3114634719918 454.26374525891384 1865.387252316179 454.26374525891384L1865.387252316179 454.26374525891384L1857.1153560831444 454.26374525891384L1857.1153560831444 450.43744031689533L1880.3607115401473 450.43744031689533L1880.3607115401473 462.22599831744947L1881.0021152587515 462.38081990469874Q1884.0321948949168 456.01101745787025 1888.7210772516096 452.2731819942799Q1893.4320769779101 448.5132291610825 1899.470118880633 448.5132291610825L1899.470118880633 448.5132291610825Q1906.9679071774203 448.5132291610825 1913.4040617330702 453.53387206188137Q1919.8623336583269 458.55451496268023 1923.6886386003457 467.3129933270694Q1927.4928261727573 476.0714716914586 1927.4928261727573 486.73204384205354L1927.4928261727573 486.73204384205354Q1927.4928261727573 497.4147333622555 1923.6886386003457 506.17321172664475Q1919.8623336583269 514.9316900910339 1913.4040617330702 519.9523329918328Q1906.9679071774203 524.9508585230246 1899.470118880633 524.9508585230246L1899.470118880633 524.9508585230246Q1893.2551380210539 524.9508585230246 1888.322964598683 520.9033798849357Q1883.3907911763122 516.8337838772397 1881.0021152587515 511.10538514901543L1881.0021152587515 511.10538514901543L1880.3607115401473 511.2602067362647L1880.3607115401473 552.3542794661514Q1880.3607115401473 554.2563732523572 1881.156936846001 555.0525985582108Q1881.9531621518545 555.8488238640643 1883.8773733076673 555.8488238640643L1883.8773733076673 555.8488238640643L1892.1492695407014 555.8488238640643L1892.1492695407014 559.6751288060827L1857.1153560831444 559.6751288060827ZM1897.7228466816764 520.5052672320089Q1905.5302781529626 520.5052672320089 1909.511404682231 511.7467888676197Q1913.4925312114983 502.9883105032305 1913.4925312114983 486.73204384205354L1913.4925312114983 486.73204384205354Q1913.4925312114983 470.4978945504837 1909.511404682231 461.7394161860945Q1905.5302781529626 452.9809378217053 1897.7228466816764 452.9809378217053L1897.7228466816764 452.9809378217053Q1892.945494846555 452.9809378217053 1888.9643683172872 456.4754822196182Q1884.9832417880193 459.99214398713804 1882.6830353488867 466.1186553682891Q1880.3607115401473 472.2451667494401 1880.3607115401473 479.4111945021222L1880.3607115401473 479.4111945021222L1880.3607115401473 494.075010551592Q1880.3607115401473 501.24103830427407 1882.6830353488867 507.3675496854251Q1884.9832417880193 513.4940610665761 1888.9643683172872 516.988605464489Q1892.945494846555 520.5052672320089 1897.7228466816764 520.5052672320089L1897.7228466816764 520.5052672320089ZM1975.5981050680766 524.9508585230246Q1960.7794674313573 524.9508585230246 1951.7776980012904 514.9316900910339Q1942.798045940831 504.8904042894362 1942.798045940831 487.06380438615923L1942.798045940831 487.06380438615923Q1942.798045940831 476.8676969973122 1946.7791724700987 468.0207491544948Q1950.7602989993666 459.19591868128447 1957.8378572736206 453.86563260598706Q1964.9154155478745 448.5132291610825 1973.6738939122638 448.5132291610825L1973.6738939122638 448.5132291610825Q1983.4055365393629 448.5132291610825 1989.5984000293347 453.7771631275589Q1995.8133808889143 459.0410970940352 1998.6001694594015 467.06970226139197Q2001.3869580298892 475.12042479835577 2001.3869580298892 483.5471426186393L2001.3869580298892 483.5471426186393Q2001.3869580298892 485.31653218720277 2000.2810895495368 485.8694664273789Q1999.1531036995775 486.422400667555 1996.4547846075184 486.422400667555L1996.4547846075184 486.422400667555L1956.7983409020894 486.422400667555Q1956.7983409020894 502.34690678462624 1961.3324016715333 511.7467888676197Q1965.8885798105844 521.1466709506132 1976.2395087866807 521.1466709506132L1976.2395087866807 521.1466709506132Q1983.5603581266118 521.1466709506132 1989.9965126822617 515.5730938096383Q1996.4547846075184 509.99951666866326 1998.2020568064745 498.2109586681091L1998.2020568064745 498.2109586681091L2002.0283617484934 498.2109586681091Q2001.0773148553903 509.8225777118069 1993.9776392115295 517.3867181174157Q1986.9000809372756 524.9508585230246 1975.5981050680766 524.9508585230246L1975.5981050680766 524.9508585230246ZM1956.7983409020894 482.59609572553643L1987.6963062431291 482.59609572553643Q1987.6963062431291 469.85649083187946 1984.3565834324654 461.0980124674902Q1981.0168606218022 452.339534103101 1973.364250737765 452.339534103101L1973.364250737765 452.339534103101Q1965.2471760919798 452.339534103101 1961.0227584970348 461.1864819459184Q1956.7983409020894 470.0113124191287 1956.7983409020894 482.59609572553643L1956.7983409020894 482.59609572553643ZM2014.4583234676516 523.0487647368188L2014.4583234676516 519.2224597948004L2021.1377690889785 519.2224597948004Q2023.0398628751846 519.2224597948004 2023.8360881810381 518.4262344889469Q2024.6323134868917 517.6300091830933 2024.6323134868917 515.7279153968875L2024.6323134868917 515.7279153968875L2024.6323134868917 457.75828965682666Q2024.6323134868917 455.8561958706209 2023.8360881810381 455.0599705647674Q2023.0398628751846 454.26374525891384 2021.1377690889785 454.26374525891384L2021.1377690889785 454.26374525891384L2014.4583234676516 454.26374525891384L2014.4583234676516 450.43744031689533L2036.1112283129469 450.43744031689533L2036.1112283129469 466.3619464339666L2036.7526320315515 466.51676802121585Q2040.0923548422152 458.2448717881816 2045.4226409175126 453.3790504746321Q2050.75292699281 448.5132291610825 2056.8130862651396 448.5132291610825L2056.8130862651396 448.5132291610825Q2062.851128167863 448.5132291610825 2066.6774331098813 452.0298909286024Q2070.5037380518997 455.5244353265153 2070.5037380518997 461.5845945988452L2070.5037380518997 461.5845945988452Q2070.5037380518997 465.07913899675805 2068.026592655911 468.4188618074216Q2065.5715646295293 471.7807019876922 2061.7452596875105 471.7807019876922L2061.7452596875105 471.7807019876922Q2058.7151800513457 471.7807019876922 2056.6582646778907 470.1882513759851Q2054.5792319348284 468.59580076427795 2054.5792319348284 465.7205427153623L2054.5792319348284 465.7205427153623Q2054.5792319348284 462.38081990469874 2057.7641331582427 459.99214398713804L2057.7641331582427 459.99214398713804Q2059.2017621827003 459.0410970940352 2059.909518010126 458.2448717881816Q2060.6393912071585 457.44864648232806 2060.6393912071585 456.1658390451195L2060.6393912071585 456.1658390451195Q2060.6393912071585 454.7282100206617 2059.2681142915217 453.86563260598706Q2057.918954745492 452.9809378217053 2055.5302788279314 452.9809378217053L2055.5302788279314 452.9809378217053Q2050.5981054055605 452.9809378217053 2046.0640446361167 457.75828965682666Q2041.5299838666729 462.53564149194807 2038.8095474050065 470.1882513759851Q2036.1112283129469 477.8187438904151 2036.1112283129469 486.11275749305634L2036.1112283129469 486.11275749305634L2036.1112283129469 515.7279153968875Q2036.1112283129469 517.6300091830933 2036.907453618801 518.4262344889469Q2037.703678924654 519.2224597948004 2039.60577271086 519.2224597948004L2039.60577271086 519.2224597948004L2046.3073357017943 519.2224597948004L2046.3073357017943 523.0487647368188L2014.4583234676516 523.0487647368188Z " fill="#ddc6b6" transform="matrix(0.4226024410383951,0,0,0.42260244103839506,0,95.1750923250081)"/></g></svg>